<?xml version="1.0" encoding="utf-8"?>
<svg id="svg2985" height="64" viewBox="0 0 240 64" width="240" version="1.1" xmlns="http://www.w3.org/2000/svg">
  <g transform="matrix(1, 0, 0, 1, -0.676053, 0.298596)">
    <rect id="rect3778" height="64" width="240" fill="none"/>
    <g id="g4194">
      <g id="g4145" fill="currentColor">
        <circle id="path2993" stroke-width="1.3262" transform="rotate(-30)" cy="43.7" cx="9.4" r="2.3"/>
        <path id="path3004" stroke-width="1.0095" d="M 37 24.2 l -2.8 3.6 c 0.7 0.5 1.3 1.2 1.8 1.9 c 0.4 0.8 0.7 1.7 0.8 2.5 l 4.6 -0.7 c -0.2 -1.4 -0.6 -2.8 -1.4 -4.1 s -1.7 -2.4 -2.9 -3.3 z"/>
        <path id="path3014" stroke-width="1.0095" d="M 42.5 16.9 l -2.8 3.6 c 1.6 1.2 3.1 2.8 4.2 4.7 s 1.7 3.9 1.9 5.9 l 4.6 -0.7 c -0.3 -2.6 -1.2 -5.2 -2.6 -7.6 c -1.4 -2.4 -3.2 -4.4 -5.3 -6 z"/>
        <path id="path3036" stroke-width="3.6204" d="M 28.7 44.4 a 9.1 9.1 0 0 1 -9.1 0 a 9.1 9.1 0 0 1 -4.6 -7.9 a 9.1 9.1 0 0 1 4.6 -7.9 l 4.6 7.9 z"/>
        <path id="path3038-8" stroke-width="1.0095" d="M 17.5 6.9 c -13.9 8 -18.6 25.7 -10.6 39.6 c 8 13.9 25.7 18.6 39.6 10.6 c 13.9 -8 18.6 -25.7 10.6 -39.6 c -8 -13.9 -25.7 -18.6 -39.6 -10.6 z m 1.7 3 c 12.2 -7.1 27.9 -2.9 34.9 9.4 c 7.1 12.2 2.9 27.9 -9.4 34.9 c -12.2 7.1 -27.9 2.9 -34.9 -9.4 c -7.1 -12.2 -2.9 -27.9 9.4 -34.9 z"/>
      </g>
    </g>
    <g id="logotext" aria-label="Traccar" fill="currentColor">
      <text style="white-space: pre; fill: rgb(51, 51, 51); font-family: Arial, sans-serif; font-size: 4.7px;" x="76.868" y="32.045" transform="matrix(7.216887, 0, 0, 8.512754, -489.372589, -225.679993)">RadarGPS</text>
    </g>
  </g>
</svg>